<svg data-v-423bf9ae="" xmlns="http://www.w3.org/2000/svg" viewBox="0 0 366.78117312293864 163" class="iconAbove"><!----><!----><!----><g data-v-423bf9ae="" id="0ec067c7-6d25-403d-a837-d731645eba9a" fill="black" transform="matrix(5.424955053999871,0,0,5.424955053999871,-6.672694051497473,95.73055706633052)"><path d="M6.37 9.27L6.37 10.50L1.23 10.50L1.23 1.34L2.63 1.34L2.63 9.27L6.37 9.27ZM10.58 3.19L10.58 3.19Q11.35 3.23 11.96 3.51L11.96 3.51Q12.21 3.64 12.46 3.82Q12.71 4.00 12.91 4.27Q13.10 4.54 13.22 4.89Q13.34 5.25 13.34 5.73L13.34 5.73L13.34 10.50L12.11 10.50L11.94 9.63Q11.94 9.63 11.80 9.80Q11.66 9.97 11.40 10.16Q11.13 10.35 10.75 10.51Q10.36 10.67 9.88 10.67L9.88 10.67Q8.72 10.67 8.01 10.14Q7.29 9.62 7.29 8.46L7.29 8.46Q7.29 7.78 7.62 7.34Q7.94 6.90 8.41 6.64Q8.88 6.38 9.40 6.29Q9.93 6.19 10.33 6.19L10.33 6.19L12.03 6.19L12.03 5.71Q11.97 5.07 11.68 4.75Q11.40 4.42 10.98 4.32Q10.57 4.21 10.09 4.29Q9.60 4.37 9.18 4.50Q8.76 4.63 8.46 4.78Q8.15 4.93 8.06 4.98L8.06 4.98L8.06 3.86Q8.46 3.68 8.88 3.53L8.88 3.53Q9.24 3.40 9.69 3.30Q10.14 3.19 10.58 3.19ZM10.00 9.60L10.00 9.60Q10.84 9.60 11.37 9.21Q11.90 8.81 12.03 8.16L12.03 8.16L12.03 7.14L11.28 7.14Q11.02 7.14 10.58 7.16Q10.14 7.18 9.72 7.29Q9.30 7.41 8.99 7.67Q8.68 7.92 8.68 8.40L8.68 8.40Q8.68 8.69 8.81 8.92Q8.93 9.14 9.12 9.30Q9.31 9.45 9.55 9.53Q9.79 9.60 10.00 9.60ZM20.02 3.36L21.36 3.36L18.80 10.50L17.23 10.50L14.69 3.36L16.02 3.36L18.03 9.18L20.02 3.36ZM26.08 10.67L26.08 10.67Q24.88 10.67 24.13 10.31Q23.38 9.95 22.96 9.39Q22.54 8.83 22.39 8.14Q22.23 7.45 22.23 6.78L22.23 6.78Q22.23 6.10 22.45 5.46Q22.67 4.82 23.08 4.31Q23.49 3.81 24.09 3.50Q24.70 3.19 25.48 3.19L25.48 3.19Q26.42 3.19 27.05 3.52Q27.68 3.85 28.06 4.38Q28.43 4.90 28.59 5.54Q28.74 6.17 28.74 6.78L28.74 6.78L28.74 7.22L23.63 7.22Q23.69 7.90 23.94 8.41L23.94 8.41Q24.05 8.64 24.22 8.86Q24.39 9.07 24.63 9.24Q24.88 9.41 25.20 9.51Q25.52 9.60 25.94 9.60L25.94 9.60Q26.39 9.60 26.79 9.50Q27.19 9.39 27.50 9.27L27.50 9.27Q27.86 9.11 28.17 8.92L28.17 8.92L28.18 10.12Q28.18 10.12 28.02 10.21Q27.86 10.30 27.58 10.40Q27.30 10.50 26.91 10.58Q26.53 10.67 26.08 10.67ZM23.63 6.24L27.34 6.24Q27.34 5.89 27.24 5.54Q27.13 5.18 26.91 4.89Q26.68 4.61 26.33 4.43Q25.98 4.26 25.48 4.26L25.48 4.26Q25.05 4.26 24.70 4.43Q24.36 4.61 24.12 4.89Q23.88 5.18 23.76 5.54Q23.63 5.89 23.63 6.24L23.63 6.24ZM33.00 9.52L33.00 10.50Q32.77 10.58 32.49 10.63Q32.21 10.67 31.98 10.67L31.98 10.67Q31.26 10.67 30.88 10.25Q30.51 9.83 30.51 9.03L30.51 9.03L30.51 1.62L31.82 1.62L31.82 9.00Q31.82 9.30 31.93 9.44Q32.03 9.59 32.28 9.59L32.28 9.59Q32.42 9.59 32.66 9.57Q32.89 9.55 33.00 9.52L33.00 9.52ZM42.88 3.91L42.45 4.89Q41.62 4.26 40.71 4.26L40.71 4.26Q40.21 4.26 39.91 4.46Q39.61 4.66 39.61 5.15L39.61 5.15Q39.61 5.40 39.73 5.58Q39.84 5.75 40.04 5.88Q40.24 6.01 40.49 6.10Q40.74 6.20 41.02 6.30L41.02 6.30Q41.38 6.43 41.76 6.58Q42.14 6.73 42.44 6.98Q42.74 7.22 42.93 7.59Q43.12 7.97 43.12 8.54L43.12 8.54Q43.12 9.09 42.92 9.49Q42.71 9.90 42.37 10.16Q42.03 10.42 41.59 10.54Q41.15 10.67 40.68 10.67L40.68 10.67Q39.98 10.67 39.31 10.39Q38.64 10.11 38.16 9.58L38.16 9.58L38.58 8.65Q39.03 9.10 39.60 9.35Q40.17 9.60 40.71 9.60L40.71 9.60Q41.24 9.60 41.59 9.39Q41.93 9.17 41.94 8.67L41.94 8.67Q41.94 8.40 41.83 8.20Q41.71 8.01 41.51 7.86Q41.31 7.71 41.05 7.61Q40.78 7.50 40.50 7.39L40.50 7.39Q40.14 7.27 39.77 7.11Q39.41 6.96 39.12 6.72Q38.82 6.48 38.64 6.12Q38.46 5.75 38.46 5.22L38.46 5.22Q38.46 4.68 38.65 4.29Q38.84 3.91 39.16 3.66Q39.48 3.42 39.90 3.30Q40.32 3.19 40.78 3.19L40.78 3.19Q41.36 3.19 41.90 3.38Q42.43 3.57 42.88 3.91L42.88 3.91ZM48.57 3.19L48.57 3.19Q49.97 3.19 50.61 4.02Q51.25 4.84 51.25 6.37L51.25 6.37L51.25 10.50L49.92 10.50L49.92 6.73Q49.92 5.46 49.60 4.86Q49.28 4.26 48.47 4.26L48.47 4.26Q47.91 4.26 47.50 4.47Q47.08 4.68 46.80 5.06Q46.52 5.45 46.38 5.99Q46.24 6.52 46.24 7.18L46.24 7.18L46.24 10.50L44.93 10.50L44.93 1.62L46.24 1.62L46.24 4.49Q46.58 3.92 47.22 3.56Q47.87 3.19 48.57 3.19ZM56.63 3.19L56.63 3.19Q57.18 3.19 57.81 3.35Q58.45 3.51 59.00 3.93Q59.54 4.35 59.91 5.08Q60.28 5.81 60.28 6.94L60.28 6.94Q60.28 8.08 59.91 8.80Q59.54 9.52 59.00 9.93Q58.45 10.35 57.81 10.51Q57.18 10.67 56.63 10.67L56.63 10.67Q56.10 10.67 55.47 10.51Q54.84 10.35 54.29 9.93Q53.75 9.52 53.38 8.80Q53.02 8.08 53.02 6.94L53.02 6.94Q53.02 5.81 53.38 5.08Q53.75 4.35 54.29 3.93Q54.84 3.51 55.47 3.35Q56.10 3.19 56.63 3.19ZM56.63 9.60L56.63 9.60Q57.09 9.60 57.51 9.44Q57.92 9.28 58.22 8.95Q58.52 8.61 58.70 8.11Q58.88 7.62 58.88 6.94L58.88 6.94Q58.88 6.27 58.70 5.77Q58.52 5.26 58.22 4.93Q57.92 4.59 57.51 4.42Q57.09 4.26 56.63 4.26L56.63 4.26Q56.18 4.26 55.78 4.42Q55.38 4.59 55.08 4.93Q54.78 5.26 54.61 5.77Q54.43 6.27 54.43 6.94L54.43 6.94Q54.43 7.62 54.61 8.11Q54.78 8.61 55.08 8.95Q55.38 9.28 55.78 9.44Q56.18 9.60 56.63 9.60ZM65.80 10.67L65.80 10.67Q65.10 10.67 64.45 10.41Q63.80 10.15 63.36 9.58L63.36 9.58L63.36 12.40L62.05 12.40L62.05 3.36L63.15 3.36L63.36 4.37L63.36 4.38Q63.56 4.05 63.90 3.79L63.90 3.79Q64.18 3.57 64.65 3.38Q65.11 3.19 65.80 3.19L65.80 3.19Q66.51 3.19 67.08 3.49Q67.65 3.79 68.04 4.30Q68.43 4.80 68.64 5.48Q68.84 6.16 68.84 6.92L68.84 6.92Q68.84 7.67 68.64 8.35Q68.43 9.03 68.04 9.55Q67.65 10.07 67.08 10.37Q66.51 10.67 65.80 10.67ZM65.51 4.26L65.51 4.26Q65.09 4.26 64.70 4.42Q64.32 4.58 64.02 4.91Q63.73 5.24 63.55 5.74Q63.36 6.24 63.36 6.92L63.36 6.92Q63.36 7.59 63.55 8.09Q63.73 8.60 64.02 8.93Q64.32 9.27 64.70 9.44Q65.09 9.60 65.51 9.60L65.51 9.60Q65.90 9.60 66.25 9.44Q66.60 9.27 66.86 8.93Q67.13 8.60 67.28 8.09Q67.44 7.59 67.44 6.92L67.44 6.92Q67.44 6.24 67.28 5.74Q67.13 5.24 66.86 4.91Q66.60 4.58 66.25 4.42Q65.90 4.26 65.51 4.26Z"></path></g><!----><g data-v-423bf9ae="" id="9f2279bf-4f07-465d-82e2-e24a1fb2e8e9" transform="matrix(1.02489633946355,0,0,1.02489633946355,132.98665874750412,-6.152396341852146)" stroke="none" fill="black"><path d="M68.16 61.403c-3.615 1.646-5.832 4.694-7.118 7.195.312-2.011.623-4.285.926-6.859 4.195-5.643 6.93-8 8.782-12.048-4.498 1.544-7.215 6.695-8.558 10.075.763-6.954 1.463-15.911 1.974-27.428.422.208.944.163 1.327-.158l1.582-1.325a1.225 1.225 0 10-1.575-1.877l-1.235 1.034c.027-.647.053-1.301.078-1.963a1.222 1.222 0 001.414-.105l1.583-1.326a1.226 1.226 0 00-1.572-1.88l-1.345 1.125.053-1.552c.405.161.881.106 1.238-.194l1.585-1.324a1.226 1.226 0 00-1.573-1.88l-1.174.983.049-1.679c.423.213.951.17 1.339-.154l1.581-1.325a1.225 1.225 0 00-1.573-1.879l-1.285 1.075.052-2.103a1.223 1.223 0 001.576.006l1.581-1.325c.52-.433.586-1.207.155-1.727a1.226 1.226 0 00-1.726-.152l-1.544 1.292.016-.736a1.22 1.22 0 00.786-1.169l-.049-2.062a1.224 1.224 0 00-2.447.057l.049 2.063c.01.451.264.834.631 1.039a697.36 697.36 0 01-.048 2.215l-.887-1.061a1.228 1.228 0 00-1.727-.153 1.229 1.229 0 00-.154 1.727l1.327 1.582c.345.414.903.536 1.381.351l-.047 1.748-.976-1.165a1.227 1.227 0 00-1.727-.154 1.231 1.231 0 00-.152 1.727l1.323 1.582c.366.437.974.55 1.465.316l-.058 1.866-1.074-1.282a1.224 1.224 0 00-1.724-.154 1.229 1.229 0 00-.156 1.727l1.325 1.582c.39.465 1.052.564 1.557.268l-.054 1.484-.906-1.082a1.225 1.225 0 10-1.88 1.57l1.325 1.585c.343.409.894.533 1.367.357a736.41 736.41 0 01-.08 1.917l-.997-1.192a1.226 1.226 0 10-1.877 1.573l1.322 1.58c.364.435.959.549 1.45.324a529.486 529.486 0 01-.793 13.504c-.819-2.858-2.56-6.957-6.148-9.48.646 4.364 2.332 6.248 5.996 11.505-.313 4.044-.65 7.603-.998 10.738-.575-2.133-1.734-4.889-4.053-7.035.603-2.478 1.017-4.547.988-6.948-2.628 2.56-3.38 6.607-3.48 9.99-.452-2.315-.97-4.824-1.563-7.539 1.059-7.08 1.389-11.648 1.204-16.095-2.302 2.375-2.8 6.2-2.661 9.666-.834-3.562-1.78-7.42-2.854-11.61a1.224 1.224 0 001.369-.633l.937-1.837a1.225 1.225 0 10-2.182-1.114l-.697 1.365c-.156-.6-.317-1.213-.478-1.826.488.049.979-.197 1.216-.659l.937-1.839a1.224 1.224 0 10-2.181-1.114l-.611 1.197-.362-1.354a1.224 1.224 0 001.402-.626l.937-1.839c.308-.602.07-1.34-.534-1.647a1.22 1.22 0 00-1.646.533l-.736 1.441-.478-1.752a1.22 1.22 0 001.335-.638l.938-1.838a1.229 1.229 0 00-.534-1.649 1.227 1.227 0 00-1.649.535l-.701 1.374-.478-1.724a1.22 1.22 0 001.321-.642l.939-1.839a1.226 1.226 0 00-2.182-1.113l-.699 1.369c-.229-.814-.464-1.642-.7-2.475.522-.284.778-.91.569-1.488l-.696-1.941a1.227 1.227 0 00-2.307.828l.698 1.942c.121.336.374.584.679.712l.3 1.06-1.614-.825a1.226 1.226 0 00-1.115 2.183l1.838.938c.504.257 1.1.129 1.462-.271.182.648.36 1.288.537 1.924l-1.437-.734a1.226 1.226 0 00-1.113 2.184l1.839.936a1.22 1.22 0 001.331-.143l.449 1.633-1.383-.706a1.226 1.226 0 00-1.116 2.181l1.839.937c.43.219.924.158 1.286-.111.142.524.278 1.036.416 1.551l-1.613-.822a1.224 1.224 0 00-1.114 2.182l1.839.938a1.223 1.223 0 001.436-.246c.174.655.346 1.307.514 1.947l-1.469-.751a1.225 1.225 0 10-1.114 2.183l1.839.937c.443.227.96.155 1.325-.14 1.792 6.933 3.232 12.953 4.391 18.177-1.423-3.268-4.455-8.472-9.42-8.732 2.992 3.496 4.093 6.264 9.906 10.949a317.1 317.1 0 012.02 10.09c-.951-1.589-2.564-3.677-4.978-4.976.115-1.562-.002-3.029-.463-4.829-.796 1.27-1.318 2.626-1.652 3.978a10.137 10.137 0 00-1.872-.329c.588.727 1.096 1.29 1.582 1.77-.279 1.814-.257 3.563-.124 5.027A1655.202 1655.202 0 0139.7 43.565a1.227 1.227 0 001.311-.817l.67-1.954a1.224 1.224 0 10-2.317-.793l-.509 1.485-.624-1.537a1.222 1.222 0 001.449-.787l.67-1.95a1.23 1.23 0 00-.763-1.558 1.224 1.224 0 00-1.556.762l-.564 1.647-.722-1.786a1.228 1.228 0 001.275-.821l.667-1.951a1.225 1.225 0 00-2.317-.795l-.49 1.427-.646-1.603c.501-.01.965-.323 1.135-.825l.671-1.951a1.226 1.226 0 00-2.318-.795l-.426 1.241-.761-1.896c.362-.323.513-.841.341-1.325l-.696-1.944a1.225 1.225 0 00-1.565-.742 1.222 1.222 0 00-.739 1.567l.694 1.943c.155.44.54.729.971.795l.307.764-.022-.01-1.953-.668a1.225 1.225 0 10-.795 2.316l1.952.668a1.22 1.22 0 001.494-.623l.808 2.009-1.615-.554a1.224 1.224 0 10-.794 2.318l1.951.67c.477.162.985.013 1.304-.336l.621 1.539-1.421-.487a1.223 1.223 0 00-1.555.762c-.221.64.121 1.337.76 1.557l1.953.669a1.22 1.22 0 001.183-.226l.551 1.358-1.56-.535a1.225 1.225 0 00-.793 2.319l1.952.669a1.22 1.22 0 001.273-.308 1766.34 1766.34 0 006.937 16.832c-2.458-4.078-6.387-9.03-10.691-8.346 3.613 2.766 6.554 8.276 12.598 12.865a668.422 668.422 0 002.832 6.579c-2.617-2.355-8.038-6.617-13.447-7.078 3.586 2.66 7.409 4.941 13.876 8.058a369.977 369.977 0 001.612 3.614c1.826 4.03 2.889 6.143 3.56 7.252a.512.512 0 00-.005.993.508.508 0 00-.319.359.513.513 0 00.224.54c-.418.624-1.484 1.476-4.133 1.011a.516.516 0 10-.177 1.017c.57.1 1.103.149 1.596.149a5.31 5.31 0 001.884-.321c-.649.486-1.598.808-2.811.939a.516.516 0 00.11 1.025c1.803-.193 3.114-.756 3.908-1.673-.411 2.357-1.112 5.142-2.267 6.842a.515.515 0 10.853.579c.986-1.452 1.657-3.562 2.108-5.589.073 1.617.134 3.241.143 4.309a.515.515 0 00.516.511h.004a.515.515 0 00.511-.52 98.26 98.26 0 00-.075-2.724c.279.821.598 1.641.963 2.414a.515.515 0 10.932-.442c-1.082-2.287-1.759-5.073-2.129-6.942l-.026-.49c.388-.06.804-.166 1.218-.362a.516.516 0 00-.055-.953c.018-.008.037-.013.055-.021a.516.516 0 00-.442-.932c-.057.027-.115.044-.173.067.677-1.562 1.68-4.633 2.723-10.499 2.886-2.958 5.376-6.032 7.605-10.133zm-11.584-6.24c1.073 1.672 2.568 3.045 4.353 6.725a193.9 193.9 0 01-.773 5.828c-.271-3.158-1.016-7.293-2.979-10.384.732 4.298.341 7.16 2.496 13.411-.806 4.703-1.587 7.629-2.2 9.419.11-2.985-.165-8.838-2.112-19.735.415-2.026.834-3.741 1.215-5.264zm-5.314 15.978c1.25-5.619 2.317-5.965 1.032-10.182-1.748 3.087-2.098 5.891-2.003 7.96a747.863 747.863 0 01-2.6-6.069c.5-2.334.926-4.13 1.206-5.686 1.277.925 2.88 1.975 5.56 4.162a177.45 177.45 0 011.262 8.192c.934 7.307.769 10.807.588 12.241-.67-1.113-2.083-3.881-5.045-10.618z"></path></g><!----></svg>